<?xml version="1.0" encoding="UTF-8" standalone="no"?>
<!DOCTYPE svg PUBLIC "-//W3C//DTD SVG 1.0//EN" "http://www.w3.org/TR/2001/PR-SVG-20010719/DTD/svg10.dtd">
<svg width="21cm" height="13cm" viewBox="78 103 412 250" xmlns="http://www.w3.org/2000/svg" xmlns:xlink="http://www.w3.org/1999/xlink">
  <rect style="fill: none; fill-opacity:0; stroke-width: 2.35099e-37; stroke: #000000" x="78" y="103.75" width="412" height="249.25"/>
  <text font-size="12.8" style="fill: #000000;text-anchor:start;font-family:sans-serif;font-style:normal;font-weight:normal" x="419" y="374">
    <tspan x="419" y="374"></tspan>
  </text>
  <text font-size="12.8" style="fill: #000000;text-anchor:start;font-family:sans-serif;font-style:normal;font-weight:normal" x="704" y="388">
    <tspan x="704" y="388"></tspan>
  </text>
  <g>
    <rect style="fill: #ffffff" x="88" y="190" width="87" height="44"/>
    <rect style="fill: none; fill-opacity:0; stroke-width: 2; stroke: #000000" x="88" y="190" width="87" height="44"/>
  </g>
  <text font-size="12.8" style="fill: #000000;text-anchor:start;font-family:sans-serif;font-style:normal;font-weight:700" x="105" y="213.5">
    <tspan x="105" y="213.5">PyPy.py</tspan>
  </text>
  <g>
    <rect style="fill: #ffffff" x="221.3" y="189.3" width="87" height="43.7"/>
    <rect style="fill: none; fill-opacity:0; stroke-width: 2; stroke: #000000" x="221.3" y="189.3" width="87" height="43.7"/>
  </g>
  <text font-size="12.8" style="fill: #000000;text-anchor:start;font-family:sans-serif;font-style:normal;font-weight:700" x="244.3" y="214.8">
    <tspan x="244.3" y="214.8">PyPy.c</tspan>
  </text>
  <text font-size="12.8" style="fill: #000000;text-anchor:start;font-family:sans-serif;font-style:normal;font-weight:normal" x="333" y="223">
    <tspan x="333" y="223"></tspan>
  </text>
  <text font-size="12.8" style="fill: #000000;text-anchor:start;font-family:sans-serif;font-style:normal;font-weight:normal" x="357" y="220">
    <tspan x="357" y="220"></tspan>
  </text>
  <text font-size="12.8" style="fill: #000000;text-anchor:start;font-family:sans-serif;font-style:normal;font-weight:normal" x="265.8" y="211.024">
    <tspan x="265.8" y="211.024"></tspan>
  </text>
  <text font-size="12.8" style="fill: #000000;text-anchor:start;font-family:sans-serif;font-style:normal;font-weight:normal" x="372.15" y="390.3">
    <tspan x="372.15" y="390.3"></tspan>
  </text>
  <text font-size="12.8" style="fill: #000000;text-anchor:start;font-family:sans-serif;font-style:normal;font-weight:normal" x="270.3" y="285.525">
    <tspan x="270.3" y="285.525"></tspan>
  </text>
  <text font-size="12.8" style="fill: #000000;text-anchor:start;font-family:sans-serif;font-style:normal;font-weight:normal" x="652.15" y="389.3">
    <tspan x="652.15" y="389.3"></tspan>
  </text>
  <g>
    <rect style="fill: #ffffff" x="349" y="275.3" width="106.3" height="34.45"/>
    <rect style="fill: none; fill-opacity:0; stroke-width: 2; stroke: #000000" x="349" y="275.3" width="106.3" height="34.45"/>
  </g>
  <text font-size="12.8" style="fill: #000000;text-anchor:start;font-family:sans-serif;font-style:normal;font-weight:700" x="358.6" y="297.1">
    <tspan x="358.6" y="297.1">mycode.x86</tspan>
  </text>
  <text font-size="12.8" style="fill: #000000;text-anchor:start;font-family:sans-serif;font-style:normal;font-weight:normal" x="402.15" y="292.525">
    <tspan x="402.15" y="292.525"></tspan>
  </text>
  <g>
    <rect style="fill: #ffffff" x="376" y="116" width="98" height="32"/>
    <rect style="fill: none; fill-opacity:0; stroke-width: 2; stroke: #000000" x="376" y="116" width="98" height="32"/>
  </g>
  <text font-size="12.8" style="fill: #000000;text-anchor:start;font-family:sans-serif;font-style:normal;font-weight:700" x="385.3" y="136.8">
    <tspan x="385.3" y="136.8">mycode.py</tspan>
  </text>
  <text font-size="12.8" style="fill: #000000;text-anchor:start;font-family:sans-serif;font-style:normal;font-weight:normal" x="431" y="135">
    <tspan x="431" y="135"></tspan>
  </text>
  <g>
    <rect style="fill: #ffffff" x="355.3" y="190.3" width="87" height="40.45"/>
    <rect style="fill: none; fill-opacity:0; stroke-width: 2; stroke: #000000" x="355.3" y="190.3" width="87" height="40.45"/>
  </g>
  <text font-size="12.8" style="fill: #000000;text-anchor:start;font-family:sans-serif;font-style:normal;font-weight:700" x="367.3" y="214.8">
    <tspan x="367.3" y="214.8">PyPy.x86</tspan>
  </text>
  <text font-size="12.8" style="fill: #000000;text-anchor:start;font-family:sans-serif;font-style:normal;font-weight:normal" x="398.8" y="210.525">
    <tspan x="398.8" y="210.525"></tspan>
  </text>
  <g>
    <path style="fill: none; fill-opacity:0; stroke-width: 2; stroke-dasharray: 4; stroke: #000000" d="M 235.067,180.34 A 48.5233,48.5233 0 0 0 156,187"/>
    <polygon style="fill: #000000" points="237.813,183.855 232.085,180.363 235.424,180.041 237.17,177.178 "/>
    <polygon style="fill: none; fill-opacity:0; stroke-width: 2; stroke: #000000" points="237.813,183.855 232.085,180.363 235.424,180.041 237.17,177.178 "/>
  </g>
  <text font-size="12.8" style="fill: #000000;text-anchor:start;font-family:sans-serif;font-style:normal;font-weight:700" x="174.5" y="154.5">
    <tspan x="174.5" y="154.5">rpython</tspan>
  </text>
  <g>
    <path style="fill: none; fill-opacity:0; stroke-width: 2; stroke-dasharray: 4; stroke: #000000" d="M 369.975,182.398 A 53.3447,53.3447 0 0 0 287,184.75"/>
    <polygon style="fill: #000000" points="372.771,185.882 366.967,182.519 370.297,182.123 371.979,179.221 "/>
    <polygon style="fill: none; fill-opacity:0; stroke-width: 2; stroke: #000000" points="372.771,185.882 366.967,182.519 370.297,182.123 371.979,179.221 "/>
  </g>
  <g>
    <path style="fill: none; fill-opacity:0; stroke-width: 2; stroke-dasharray: 4; stroke: #000000" d="M 355.3,230.75 A 31.0562,31.0562 0 0 0 342.556,291.004"/>
    <polygon style="fill: #000000" points="346.781,292.246 340.454,294.475 342.316,291.685 341.202,288.521 "/>
    <polygon style="fill: none; fill-opacity:0; stroke-width: 2; stroke: #000000" points="346.781,292.246 340.454,294.475 342.316,291.685 341.202,288.521 "/>
  </g>
  <text font-size="12.8" style="fill: #000000;text-anchor:start;font-family:sans-serif;font-style:normal;font-weight:normal" x="383" y="147">
    <tspan x="383" y="147"></tspan>
  </text>
  <text font-size="12.8" style="fill: #000000;text-anchor:start;font-family:sans-serif;font-style:normal;font-weight:700" x="310.8" y="153.8">
    <tspan x="310.8" y="153.8">gcc</tspan>
  </text>
  <text font-size="12.8" style="fill: #000000;text-anchor:start;font-family:sans-serif;font-style:normal;font-weight:700" x="262.8" y="281.8">
    <tspan x="262.8" y="281.8">pypy jit</tspan>
  </text>
  <g>
    <line style="fill: none; fill-opacity:0; stroke-width: 2; stroke-dasharray: 4; stroke: #000000" x1="425" y1="148" x2="410.298" y2="183.086"/>
    <polygon style="fill: #000000" points="408.558,187.237 408.11,180.544 410.298,183.086 413.644,182.862 "/>
    <polygon style="fill: none; fill-opacity:0; stroke-width: 2; stroke: #000000" points="408.558,187.237 408.11,180.544 410.298,183.086 413.644,182.862 "/>
  </g>
</svg>
