<?xml version="1.0" encoding="UTF-8" standalone="no"?>
<!DOCTYPE svg PUBLIC "-//W3C//DTD SVG 1.0//EN" "http://www.w3.org/TR/2001/PR-SVG-20010719/DTD/svg10.dtd">
<svg width="35cm" height="13cm" viewBox="78 103 681 257" xmlns="http://www.w3.org/2000/svg" xmlns:xlink="http://www.w3.org/1999/xlink">
  <rect style="fill: none; fill-opacity:0; stroke-width: 2.35099e-37; stroke: #000000" x="78" y="103.75" width="681" height="256"/>
  <text font-size="12.8" style="fill: #000000;text-anchor:start;font-family:sans-serif;font-style:normal;font-weight:normal" x="549" y="374">
    <tspan x="549" y="374"></tspan>
  </text>
  <text font-size="12.8" style="fill: #000000;text-anchor:start;font-family:sans-serif;font-style:normal;font-weight:normal" x="704" y="388">
    <tspan x="704" y="388"></tspan>
  </text>
  <g>
    <rect style="fill: #ffffff" x="88" y="190" width="87" height="44"/>
    <rect style="fill: none; fill-opacity:0; stroke-width: 2; stroke: #000000" x="88" y="190" width="87" height="44"/>
  </g>
  <text font-size="12.8" style="fill: #000000;text-anchor:start;font-family:sans-serif;font-style:normal;font-weight:700" x="105" y="213.5">
    <tspan x="105" y="213.5">PyPy.py</tspan>
  </text>
  <g>
    <rect style="fill: #ffffff" x="221.3" y="189.3" width="87" height="43.7"/>
    <rect style="fill: none; fill-opacity:0; stroke-width: 2; stroke: #000000" x="221.3" y="189.3" width="87" height="43.7"/>
  </g>
  <text font-size="12.8" style="fill: #000000;text-anchor:start;font-family:sans-serif;font-style:normal;font-weight:700" x="244.3" y="214.8">
    <tspan x="244.3" y="214.8">PyPy.c</tspan>
  </text>
  <text font-size="12.8" style="fill: #000000;text-anchor:start;font-family:sans-serif;font-style:normal;font-weight:normal" x="333" y="223">
    <tspan x="333" y="223"></tspan>
  </text>
  <text font-size="12.8" style="fill: #000000;text-anchor:start;font-family:sans-serif;font-style:normal;font-weight:normal" x="487" y="220">
    <tspan x="487" y="220"></tspan>
  </text>
  <text font-size="12.8" style="fill: #000000;text-anchor:start;font-family:sans-serif;font-style:normal;font-weight:normal" x="395.8" y="211.024">
    <tspan x="395.8" y="211.024"></tspan>
  </text>
  <text font-size="12.8" style="fill: #000000;text-anchor:start;font-family:sans-serif;font-style:normal;font-weight:normal" x="502.15" y="390.3">
    <tspan x="502.15" y="390.3"></tspan>
  </text>
  <text font-size="12.8" style="fill: #000000;text-anchor:start;font-family:sans-serif;font-style:normal;font-weight:normal" x="400.3" y="285.526">
    <tspan x="400.3" y="285.526"></tspan>
  </text>
  <text font-size="12.8" style="fill: #000000;text-anchor:start;font-family:sans-serif;font-style:normal;font-weight:normal" x="657.15" y="389.3">
    <tspan x="657.15" y="389.3"></tspan>
  </text>
  <text font-size="12.8" style="fill: #000000;text-anchor:start;font-family:sans-serif;font-style:normal;font-weight:normal" x="652.15" y="389.3">
    <tspan x="652.15" y="389.3"></tspan>
  </text>
  <text font-size="12.8" style="fill: #000000;text-anchor:start;font-family:sans-serif;font-style:normal;font-weight:normal" x="532.15" y="285.526">
    <tspan x="532.15" y="285.526"></tspan>
  </text>
  <text font-size="12.8" style="fill: #000000;text-anchor:start;font-family:sans-serif;font-style:normal;font-weight:normal" x="561" y="135">
    <tspan x="561" y="135"></tspan>
  </text>
  <text font-size="12.8" style="fill: #000000;text-anchor:start;font-family:sans-serif;font-style:normal;font-weight:normal" x="528.8" y="210.524">
    <tspan x="528.8" y="210.524"></tspan>
  </text>
  <g>
    <path style="fill: none; fill-opacity:0; stroke-width: 2; stroke-dasharray: 4; stroke: #000000" d="M 235.067,180.34 A 48.5233,48.5233 0 0 0 156,187"/>
    <polygon style="fill: #000000" points="237.813,183.855 232.085,180.363 235.424,180.041 237.17,177.178 "/>
    <polygon style="fill: none; fill-opacity:0; stroke-width: 2; stroke: #000000" points="237.813,183.855 232.085,180.363 235.424,180.041 237.17,177.178 "/>
  </g>
  <text font-size="12.8" style="fill: #000000;text-anchor:start;font-family:sans-serif;font-style:normal;font-weight:700" x="174.5" y="154.5">
    <tspan x="174.5" y="154.5">rpython</tspan>
  </text>
  <text font-size="12.8" style="fill: #000000;text-anchor:start;font-family:sans-serif;font-style:normal;font-weight:normal" x="513" y="147">
    <tspan x="513" y="147"></tspan>
  </text>
</svg>
